<?xml version="1.0" encoding="UTF-8"?>
<svg xmlns="http://www.w3.org/2000/svg" xmlns:xlink="http://www.w3.org/1999/xlink" width="2836" height="2836" viewBox="0 0 2836 2836">
<path fill-rule="evenodd" fill="none" fill-opacity="0" d="M 0.882812 0.46875 L 2835.53125 0.46875 L 2835.53125 2835.117188 L 0.882812 2835.117188 L 0.882812 0.46875 "/>
<path fill-rule="evenodd" fill="rgb(0%, 0%, 0%)" fill-opacity="1" d="M 584.917969 1178.261719 L 584.917969 1041.21875 C 584.917969 1033.921875 590.882812 1027.960938 598.179688 1027.960938 L 757.113281 1027.960938 L 763.320312 861.070312 C 763.378906 859.53125 763.703125 858.039062 764.246094 856.660156 L 557.382812 856.660156 C 552.832031 856.660156 546.558594 852.449219 543.730469 847.28125 C 532.335938 826.488281 521.042969 805.609375 509.59375 784.839844 C 498.097656 764 486.660156 743.199219 475.269531 722.390625 C 474.628906 721.21875 474.230469 720.101562 474.054688 719.070312 L 432.558594 719.070312 C 424.421875 719.070312 414.101562 711.890625 409.214844 703.039062 C 399.539062 685.53125 390.019531 667.910156 380.304688 650.421875 C 370.53125 632.828125 361.035156 615.320312 351.179688 597.78125 C 349.046875 593.980469 350.542969 590.640625 354.175781 590.871094 C 1067.898438 636.480469 1777.328125 636.621094 2482.460938 590.871094 C 2486.089844 590.628906 2487.238281 593.898438 2485.238281 597.5 C 2475.460938 615.179688 2465.671875 632.738281 2455.898438 650.421875 C 2446.191406 668 2436.511719 685.75 2426.78125 703.328125 C 2421.949219 712.050781 2411.570312 719.070312 2403.648438 719.070312 L 2362.328125 719.070312 C 2362.140625 720.101562 2361.738281 721.21875 2361.101562 722.390625 C 2349.699219 743.199219 2338.269531 764 2326.769531 784.839844 C 2315.320312 805.609375 2304.03125 826.488281 2292.628906 847.28125 C 2289.800781 852.449219 2283.339844 856.660156 2278.789062 856.660156 L 2072.160156 856.660156 C 2072.710938 858.039062 2073.03125 859.53125 2073.089844 861.070312 L 2079.289062 1027.960938 L 2238.230469 1027.960938 C 2245.53125 1027.960938 2251.488281 1033.921875 2251.488281 1041.21875 L 2251.488281 1178.261719 C 2251.488281 1185.550781 2245.53125 1191.519531 2238.230469 1191.519531 L 2085.378906 1191.519531 L 2124.039062 2231.472656 C 2124.320312 2238.765625 2118.570312 2244.734375 2111.28125 2244.734375 L 1974.238281 2244.734375 C 1966.941406 2244.734375 1960.761719 2238.765625 1960.480469 2231.472656 L 1921.808594 1191.519531 L 914.59375 1191.519531 L 875.925781 2231.472656 C 875.652344 2238.765625 869.464844 2244.734375 862.171875 2244.734375 L 725.132812 2244.734375 C 717.835938 2244.734375 712.09375 2238.765625 712.363281 2231.472656 L 751.035156 1191.519531 L 598.179688 1191.519531 C 590.882812 1191.519531 584.917969 1185.550781 584.917969 1178.261719 Z M 926.285156 856.660156 C 926.726562 858.039062 926.9375 859.53125 926.882812 861.070312 L 920.675781 1027.960938 L 1336.421875 1027.960938 L 1336.421875 856.660156 Z M 1499.988281 856.660156 L 1499.988281 1027.960938 L 1915.730469 1027.960938 L 1909.53125 861.070312 C 1909.46875 859.53125 1909.679688 858.039062 1910.121094 856.660156 L 1499.988281 856.660156 "/>
</svg>
