<?xml version="1.0" encoding="UTF-8" ?>
<!DOCTYPE svg PUBLIC "-//W3C//DTD SVG 1.1//EN" "http://www.w3.org/Graphics/SVG/1.1/DTD/svg11.dtd">
<svg width="345pt" height="220pt" viewBox="0 0 345 220" version="1.1" xmlns="http://www.w3.org/2000/svg">
<g id="#b2e5fafd">
<path fill="#b2e5fa" opacity="1.00" d=" M 0.00 0.00 L 0.30 0.00 C 0.23 0.08 0.08 0.23 0.00 0.30 L 0.00 0.00 Z" />
<path fill="#b2e5fa" opacity="1.00" d=" M 227.20 26.35 C 231.69 26.93 233.90 31.64 238.04 33.01 C 243.11 34.81 248.66 34.45 253.72 36.28 C 257.23 37.53 260.23 39.80 263.22 41.97 C 261.88 42.08 260.53 42.28 259.19 42.16 C 256.56 41.22 254.37 39.36 251.78 38.32 C 247.15 36.44 242.07 36.28 237.15 35.96 C 239.40 38.79 241.88 41.57 243.09 45.05 C 244.80 50.20 245.77 55.58 246.14 60.99 C 238.87 61.44 231.48 63.76 224.26 61.72 C 221.03 61.08 218.33 59.16 215.63 57.40 C 212.10 55.01 207.74 54.24 204.26 51.77 C 201.72 49.99 199.23 48.13 196.88 46.12 C 194.01 43.70 192.02 40.28 188.60 38.54 C 186.39 37.35 184.33 35.89 182.51 34.15 C 186.77 31.85 191.30 29.80 196.14 29.14 C 200.15 28.87 204.21 30.08 208.18 29.02 C 214.42 27.47 220.88 27.43 227.20 26.35 M 197.60 33.00 L 196.77 32.96 L 196.11 33.80 L 196.31 34.72 L 195.56 35.47 C 195.43 35.60 195.19 35.85 195.06 35.97 C 193.46 36.47 194.02 39.84 195.63 40.07 C 195.78 40.21 196.10 40.50 196.25 40.64 L 196.37 41.20 L 196.93 41.27 C 196.85 43.08 197.72 43.98 199.53 43.94 L 199.65 44.47 L 200.20 44.53 L 200.31 45.47 L 201.32 46.21 L 202.25 46.05 L 202.47 46.62 L 203.09 46.62 L 203.28 47.54 L 204.34 48.28 L 205.28 48.14 L 205.47 48.71 L 206.08 48.74 L 206.30 49.28 L 206.87 49.26 L 207.08 50.19 L 208.13 50.84 L 208.99 50.57 L 209.22 51.47 L 210.26 52.01 L 211.09 51.65 L 211.30 52.55 L 212.32 53.05 L 213.13 52.66 L 213.39 53.54 L 214.44 53.94 L 215.23 53.46 C 215.09 55.25 218.06 55.94 219.08 54.65 L 219.32 55.53 L 220.37 55.97 L 221.17 55.51 C 221.13 57.31 224.09 57.94 225.17 56.71 C 225.98 58.61 230.04 58.78 230.90 56.82 C 233.14 57.78 237.03 57.86 238.19 55.32 C 238.34 55.20 238.65 54.95 238.80 54.83 C 238.93 54.67 239.19 54.35 239.32 54.19 C 241.11 53.45 241.42 49.85 239.72 48.94 L 239.88 48.08 L 239.15 47.09 L 238.22 46.89 L 238.21 46.21 L 237.56 45.96 L 237.47 45.25 L 236.78 45.05 L 236.63 44.30 L 235.89 44.11 L 235.70 43.36 L 234.96 43.19 L 234.76 42.48 L 234.04 42.35 L 233.81 41.67 L 233.11 41.60 L 232.90 40.65 L 231.83 39.90 L 230.91 40.05 L 230.67 39.52 L 230.10 39.56 L 229.89 38.63 L 228.85 38.03 L 228.00 38.34 L 227.79 37.44 L 226.76 36.90 L 225.93 37.25 L 225.75 36.36 L 224.74 35.84 L 223.91 36.22 L 223.69 35.33 L 222.66 34.88 L 221.85 35.31 L 221.70 34.52 L 220.74 33.81 L 219.53 33.78 L 218.88 34.30 L 218.73 33.50 L 217.78 32.79 L 216.56 32.76 L 215.90 33.30 C 215.83 31.31 212.33 30.75 211.30 32.29 C 208.17 30.62 204.46 31.15 201.05 31.19 C 199.60 31.05 198.59 32.14 197.60 33.00 Z" />
</g>
<g id="#368bbddd">
<path fill="#368bbd" opacity="0.87" d=" M 143.49 9.30 C 154.86 7.13 166.49 7.23 178.01 7.27 C 192.89 7.33 207.78 8.88 222.22 12.57 C 231.55 15.06 241.03 17.32 249.92 21.18 C 255.84 24.25 262.35 26.21 267.79 30.18 C 271.95 33.13 276.69 35.15 280.71 38.31 C 289.01 44.95 297.59 51.40 304.29 59.75 C 312.61 68.32 317.98 79.10 323.55 89.53 C 327.23 97.78 331.52 105.99 332.83 115.04 C 333.64 119.80 334.79 124.50 335.80 129.23 C 335.00 128.74 334.20 128.25 333.41 127.76 C 332.46 120.80 331.02 113.89 328.66 107.26 C 326.03 97.73 321.21 89.03 316.69 80.30 C 308.60 66.30 297.83 53.83 285.03 43.92 C 258.52 23.17 225.33 12.06 191.95 9.60 C 184.21 8.87 176.43 8.33 168.64 8.68 C 156.70 9.12 144.85 10.83 133.11 13.02 C 121.26 15.26 109.97 19.57 98.82 24.04 C 84.84 29.78 71.91 37.83 59.91 46.96 C 60.57 45.62 61.17 44.26 61.85 42.93 C 66.68 38.90 72.33 36.00 77.56 32.54 C 83.28 28.56 90.10 26.68 96.03 23.07 C 102.83 20.32 109.55 17.16 116.76 15.61 C 119.84 14.87 122.86 13.89 125.89 12.98 C 131.64 11.23 137.69 10.84 143.49 9.30 Z" />
</g>
<g id="#b6e8fafc">
<path fill="#b6e8fa" opacity="1.00" d=" M 133.11 13.02 C 144.85 10.83 156.70 9.12 168.64 8.68 C 168.51 10.75 168.41 13.27 170.58 14.38 C 174.48 16.45 178.99 16.90 183.26 17.75 C 161.24 17.04 139.02 19.41 117.90 25.83 L 117.07 26.05 C 110.89 27.41 104.73 25.75 98.82 24.04 C 109.97 19.57 121.26 15.26 133.11 13.02 Z" />
</g>
<g id="#bfebfafc">
<path fill="#bfebfa" opacity="1.00" d=" M 168.64 8.68 C 176.43 8.33 184.21 8.87 191.95 9.60 C 225.33 12.06 258.52 23.17 285.03 43.92 C 297.83 53.83 308.60 66.30 316.69 80.30 C 321.21 89.03 326.03 97.73 328.66 107.26 C 326.30 106.36 325.20 103.98 323.86 102.03 C 323.56 105.35 323.50 108.69 323.76 112.01 C 321.94 108.79 320.31 105.47 318.93 102.04 C 316.60 96.36 313.50 91.04 310.04 85.98 C 306.12 80.29 302.55 74.29 297.75 69.27 C 295.30 66.70 292.81 64.19 290.25 61.74 C 286.48 58.09 281.79 55.61 277.97 52.02 C 273.63 47.87 268.12 45.35 263.22 41.97 C 260.23 39.80 257.23 37.53 253.72 36.28 C 248.66 34.45 243.11 34.81 238.04 33.01 C 233.90 31.64 231.69 26.93 227.20 26.35 C 222.00 25.29 216.89 23.87 211.85 22.23 C 202.56 19.56 192.93 18.01 183.26 17.75 C 178.99 16.90 174.48 16.45 170.58 14.38 C 168.41 13.27 168.51 10.75 168.64 8.68 Z" />
</g>
<g id="#96dafafd">
<path fill="#96dafa" opacity="1.00" d=" M 117.90 25.83 C 139.02 19.41 161.24 17.04 183.26 17.75 C 192.93 18.01 202.56 19.56 211.85 22.23 C 216.89 23.87 222.00 25.29 227.20 26.35 C 220.88 27.43 214.42 27.47 208.18 29.02 C 204.21 30.08 200.15 28.87 196.14 29.14 C 191.30 29.80 186.77 31.85 182.51 34.15 C 184.33 35.89 186.39 37.35 188.60 38.54 C 192.02 40.28 194.01 43.70 196.88 46.12 C 199.23 48.13 201.72 49.99 204.26 51.77 C 207.74 54.24 212.10 55.01 215.63 57.40 C 218.33 59.16 221.03 61.08 224.26 61.72 C 231.48 63.76 238.87 61.44 246.14 60.99 C 245.77 55.58 244.80 50.20 243.09 45.05 C 241.88 41.57 239.40 38.79 237.15 35.96 C 242.07 36.28 247.15 36.44 251.78 38.32 C 254.37 39.36 256.56 41.22 259.19 42.16 C 260.53 42.28 261.88 42.08 263.22 41.97 C 268.12 45.35 273.63 47.87 277.97 52.02 C 281.79 55.61 286.48 58.09 290.25 61.74 C 292.81 64.19 295.30 66.70 297.75 69.27 C 302.55 74.29 306.12 80.29 310.04 85.98 C 313.50 91.04 316.60 96.36 318.93 102.04 C 320.31 105.47 321.94 108.79 323.76 112.01 C 323.50 108.69 323.56 105.35 323.86 102.03 C 325.20 103.98 326.30 106.36 328.66 107.26 C 331.02 113.89 332.46 120.80 333.41 127.76 C 334.95 137.91 334.84 148.40 332.35 158.40 C 330.47 165.41 327.10 171.98 322.89 177.87 C 316.77 186.31 307.81 192.19 298.48 196.54 C 285.82 202.12 271.96 204.06 258.30 205.44 C 254.74 205.12 251.16 205.28 247.67 206.07 C 245.22 206.21 242.78 206.33 240.33 206.43 C 237.43 206.12 234.51 206.29 231.68 207.04 C 228.12 207.29 224.55 207.36 220.99 207.35 C 211.97 207.24 203.00 208.39 193.99 208.29 C 182.56 208.23 171.12 208.67 159.71 207.97 C 162.44 207.42 165.18 206.82 167.98 206.85 C 174.98 206.91 181.99 206.97 189.00 206.98 C 194.34 206.99 199.64 206.21 204.97 206.05 C 212.29 205.72 219.73 206.73 226.92 204.90 C 232.21 203.55 237.58 205.50 242.91 204.87 C 246.35 204.08 248.65 200.76 252.18 200.22 C 259.44 199.30 266.77 200.38 274.05 199.96 C 277.20 199.78 279.95 198.11 282.76 196.87 C 286.09 195.28 289.69 194.39 293.15 193.15 C 298.23 191.36 302.41 187.83 306.73 184.73 C 311.59 181.00 316.61 177.07 319.58 171.59 C 323.16 164.97 326.17 157.69 325.94 150.03 C 325.73 148.54 326.02 146.26 324.02 146.02 C 320.65 148.16 318.48 151.72 315.19 153.95 C 313.66 154.39 312.07 154.48 310.51 154.70 C 308.70 156.19 306.63 157.30 304.39 158.00 C 300.17 159.34 297.14 162.90 293.00 164.40 C 289.66 162.39 287.48 158.65 283.68 157.40 C 280.89 157.14 278.12 157.77 275.35 157.61 C 273.72 155.91 272.61 153.77 270.88 152.17 C 268.49 150.46 265.59 149.55 263.38 147.60 C 261.41 145.81 259.97 143.57 258.51 141.38 C 258.99 140.17 259.46 138.95 259.91 137.73 C 256.22 137.23 252.42 137.23 248.83 136.17 C 245.50 133.83 243.02 130.35 239.19 128.72 C 229.31 123.48 217.87 123.68 207.00 123.54 C 197.65 123.48 188.22 125.52 179.92 129.88 C 177.22 131.22 175.09 133.41 173.17 135.68 C 173.08 135.79 172.90 136.00 172.81 136.10 C 172.71 136.22 172.50 136.46 172.40 136.58 C 172.02 136.80 171.24 137.25 170.86 137.47 L 170.62 138.34 C 170.27 139.51 169.89 140.67 169.51 141.84 C 171.06 143.19 172.59 144.55 174.13 145.91 C 171.04 145.94 167.99 146.33 164.94 146.78 C 163.07 147.21 161.36 146.16 159.70 145.50 C 156.19 143.91 152.43 142.89 149.10 140.93 C 146.94 139.72 144.83 138.33 142.44 137.62 C 137.67 136.21 132.59 136.49 127.82 135.12 C 125.60 134.59 124.19 132.48 123.84 130.34 C 123.18 126.85 123.28 123.28 122.70 119.78 C 122.37 117.18 121.61 114.55 122.03 111.91 C 123.67 109.79 126.33 108.80 128.57 107.45 C 124.90 106.24 121.32 104.76 118.05 102.71 L 118.54 102.72 C 129.27 104.41 138.76 110.43 149.47 112.11 C 147.53 109.08 143.86 108.40 140.72 107.25 C 136.05 105.73 131.50 103.87 126.89 102.17 C 128.05 101.98 129.21 101.78 130.37 101.56 C 130.73 99.42 130.66 96.97 132.25 95.29 C 134.70 92.33 137.85 89.80 139.26 86.11 C 140.82 82.28 140.98 77.24 137.82 74.15 C 135.34 71.63 132.86 69.09 131.01 66.05 C 132.28 63.04 133.18 59.90 133.82 56.71 C 135.68 55.93 137.82 55.56 139.37 54.19 C 140.52 52.44 139.69 50.25 139.70 48.32 C 134.77 46.99 129.89 48.81 124.98 49.08 C 120.31 49.30 116.40 46.38 112.71 43.92 C 115.10 41.55 117.51 39.10 120.56 37.60 C 124.16 35.74 128.25 35.33 132.03 33.99 C 134.81 33.05 135.68 29.90 137.10 27.65 C 130.96 25.33 124.32 25.97 117.90 25.83 M 277.06 85.95 C 263.71 89.72 250.42 93.73 237.24 98.09 C 226.11 101.53 214.92 104.79 204.00 108.87 C 202.28 109.60 199.90 110.14 199.56 112.33 C 207.55 110.65 215.16 107.53 222.89 104.91 C 238.86 99.82 254.79 94.55 270.90 89.90 C 275.19 88.66 279.55 87.57 283.61 85.66 C 281.52 84.51 279.19 85.49 277.06 85.95 M 267.07 126.09 C 264.94 128.24 262.56 130.13 260.40 132.26 C 260.79 135.15 261.83 137.91 262.20 140.81 C 262.57 144.59 266.35 147.19 269.97 147.21 C 274.45 147.37 278.99 147.19 283.41 146.38 C 287.09 145.67 289.42 142.48 292.47 140.63 C 294.19 140.48 295.92 140.89 297.62 140.59 C 299.90 139.21 301.79 137.17 303.09 134.85 C 302.74 130.87 299.88 127.60 297.26 124.76 C 295.94 126.13 294.61 127.48 293.31 128.87 C 292.21 127.89 291.16 126.85 289.93 126.05 C 288.12 125.29 286.07 125.38 284.24 124.69 C 282.41 123.88 280.83 122.55 278.91 121.94 C 274.63 121.49 270.05 122.90 267.07 126.09 Z" />
<path fill="#96dafa" opacity="1.00" d=" M 111.24 28.55 C 111.35 28.51 111.58 28.42 111.69 28.38 C 111.58 28.42 111.35 28.51 111.24 28.55 Z" />
<path fill="#96dafa" opacity="1.00" d=" M 106.93 99.90 C 107.03 99.57 107.23 98.91 107.33 98.58 C 107.76 98.73 108.61 99.05 109.04 99.21 L 109.23 99.80 C 108.82 99.94 108.01 100.22 107.60 100.36 L 106.93 99.90 Z" />
<path fill="#96dafa" opacity="1.00" d=" M 109.23 99.80 L 109.81 99.51 C 110.31 99.70 111.30 100.10 111.80 100.30 L 112.04 100.84 C 110.65 101.51 109.71 101.16 109.23 99.80 Z" />
<path fill="#96dafa" opacity="1.00" d=" M 112.04 100.84 L 112.47 100.57 C 114.41 100.86 116.36 101.31 118.02 102.43 L 118.05 102.71 C 115.80 103.44 113.60 102.46 112.04 100.84 Z" />
</g>
<g id="#a9e1f8fb">
<path fill="#a9e1f8" opacity="1.00" d=" M 59.91 46.96 C 71.91 37.83 84.84 29.78 98.82 24.04 C 104.73 25.75 110.89 27.41 117.07 26.05 C 115.26 26.79 113.49 27.63 111.69 28.38 C 111.58 28.42 111.35 28.51 111.24 28.55 C 110.03 29.00 108.81 29.41 107.59 29.80 C 100.10 32.06 92.67 34.79 86.07 39.05 C 80.81 42.41 75.45 45.60 70.21 48.99 C 66.13 47.70 61.84 48.29 57.80 49.34 C 58.51 48.56 59.22 47.77 59.91 46.96 Z" />
</g>
<g id="#8bd3f9fc">
<path fill="#8bd3f9" opacity="1.00" d=" M 117.07 26.05 L 117.90 25.83 C 124.32 25.97 130.96 25.33 137.10 27.65 C 135.68 29.90 134.81 33.05 132.03 33.99 C 128.25 35.33 124.16 35.74 120.56 37.60 C 117.51 39.10 115.10 41.55 112.71 43.92 C 116.40 46.38 120.31 49.30 124.98 49.08 C 129.89 48.81 134.77 46.99 139.70 48.32 C 139.69 50.25 140.52 52.44 139.37 54.19 C 137.82 55.56 135.68 55.93 133.82 56.71 C 133.18 59.90 132.28 63.04 131.01 66.05 C 132.86 69.09 135.34 71.63 137.82 74.15 C 140.98 77.24 140.82 82.28 139.26 86.11 C 137.85 89.80 134.70 92.33 132.25 95.29 C 130.66 96.97 130.73 99.42 130.37 101.56 C 129.21 101.78 128.05 101.98 126.89 102.17 C 121.03 100.45 115.29 98.35 109.51 96.40 C 112.83 91.09 116.25 85.80 118.81 80.07 C 120.68 76.27 116.10 73.52 115.34 70.08 C 115.56 66.25 117.32 62.71 117.72 58.90 C 117.84 56.94 117.20 55.03 116.82 53.13 C 113.26 53.48 109.69 53.76 106.13 53.96 C 106.69 50.99 107.20 48.01 108.03 45.11 C 109.26 40.71 111.89 36.92 114.11 32.98 C 111.93 32.57 109.76 32.14 107.58 31.73 C 107.58 31.25 107.59 30.29 107.59 29.80 C 108.81 29.41 110.03 29.00 111.24 28.55 C 111.35 28.51 111.58 28.42 111.69 28.38 C 113.49 27.63 115.26 26.79 117.07 26.05 Z" />
</g>
<g id="#7ccbf5fc">
<path fill="#7ccbf5" opacity="1.00" d=" M 86.07 39.05 C 92.67 34.79 100.10 32.06 107.59 29.80 C 107.59 30.29 107.58 31.25 107.58 31.73 C 109.76 32.14 111.93 32.57 114.11 32.98 C 111.89 36.92 109.26 40.71 108.03 45.11 C 107.20 48.01 106.69 50.99 106.13 53.96 C 109.69 53.76 113.26 53.48 116.82 53.13 C 117.20 55.03 117.84 56.94 117.72 58.90 C 117.32 62.71 115.56 66.25 115.34 70.08 C 116.10 73.52 120.68 76.27 118.81 80.07 C 116.25 85.80 112.83 91.09 109.51 96.40 C 105.54 95.19 101.54 94.09 97.59 92.79 C 97.49 92.76 97.28 92.70 97.17 92.67 C 90.92 90.78 84.59 89.14 78.31 87.36 C 78.17 87.31 77.88 87.23 77.74 87.19 L 77.17 87.02 C 77.02 86.98 76.74 86.89 76.60 86.85 C 72.84 85.68 68.98 84.83 65.19 83.79 L 64.91 82.89 C 69.23 83.21 73.49 83.94 77.72 84.86 C 80.15 83.02 83.00 81.63 85.02 79.31 C 85.74 77.20 85.72 74.91 85.54 72.71 C 85.24 69.56 82.43 67.35 79.80 66.02 C 77.99 65.90 76.44 67.11 74.88 67.86 C 69.92 70.90 64.73 73.58 60.06 77.07 C 57.89 78.67 55.51 79.98 53.09 81.16 C 53.12 78.15 52.89 74.96 54.28 72.18 C 56.02 68.62 58.28 65.33 59.84 61.67 C 55.41 64.51 51.96 68.53 48.02 71.96 C 43.84 75.86 41.11 81.21 35.95 84.05 C 37.33 81.71 38.65 79.34 40.18 77.09 C 47.89 65.51 59.16 57.13 70.21 48.99 C 75.45 45.60 80.81 42.41 86.07 39.05 M 64.72 60.70 C 61.08 64.17 57.08 68.24 57.10 73.63 C 57.64 73.91 58.72 74.48 59.26 74.76 C 65.97 71.34 71.81 66.03 75.31 59.31 C 75.92 58.43 75.96 57.52 75.43 56.59 C 71.46 55.87 67.54 58.07 64.72 60.70 Z" />
</g>
<g id="#c1edfbfc">
<path fill="#c1edfb" opacity="1.00" d=" M 197.60 33.00 C 198.59 32.14 199.60 31.05 201.05 31.19 C 204.46 31.15 208.17 30.62 211.30 32.29 C 206.72 32.05 202.15 32.55 197.60 33.00 Z" />
<path fill="#c1edfb" opacity="1.00" d=" M 211.30 32.29 C 212.33 30.75 215.83 31.31 215.90 33.30 C 214.33 33.12 212.80 32.73 211.30 32.29 Z" />
<path fill="#c1edfb" opacity="1.00" d=" M 196.11 33.80 L 196.77 32.96 L 197.60 33.00 L 197.60 33.75 C 197.28 33.99 196.63 34.48 196.31 34.72 L 196.11 33.80 Z" />
<path fill="#c1edfb" opacity="1.00" d=" M 215.90 33.30 L 216.56 32.76 L 217.78 32.79 L 218.73 33.50 L 218.88 34.30 C 217.77 34.29 216.78 33.96 215.90 33.30 Z" />
<path fill="#c1edfb" opacity="1.00" d=" M 218.88 34.30 L 219.53 33.78 L 220.74 33.81 L 221.70 34.52 L 221.85 35.31 C 220.74 35.33 219.75 35.00 218.88 34.30 Z" />
<path fill="#c1edfb" opacity="1.00" d=" M 195.06 35.97 C 195.19 35.85 195.43 35.60 195.56 35.47 C 195.43 35.60 195.19 35.85 195.06 35.97 Z" />
<path fill="#c1edfb" opacity="1.00" d=" M 221.85 35.31 L 222.66 34.88 L 223.69 35.33 L 223.91 36.22 C 223.40 35.99 222.37 35.54 221.85 35.31 Z" />
<path fill="#c1edfb" opacity="1.00" d=" M 195.63 40.07 C 194.02 39.84 193.46 36.47 195.06 35.97 C 195.42 37.31 195.60 38.68 195.63 40.07 Z" />
<path fill="#c1edfb" opacity="1.00" d=" M 223.91 36.22 L 224.74 35.84 L 225.75 36.36 L 225.93 37.25 C 225.43 37.00 224.42 36.48 223.91 36.22 Z" />
<path fill="#c1edfb" opacity="1.00" d=" M 225.93 37.25 L 226.76 36.90 L 227.79 37.44 L 228.00 38.34 C 227.48 38.07 226.45 37.53 225.93 37.25 Z" />
<path fill="#c1edfb" opacity="1.00" d=" M 228.00 38.34 L 228.85 38.03 L 229.89 38.63 L 230.10 39.56 C 229.58 39.26 228.52 38.65 228.00 38.34 Z" />
<path fill="#c1edfb" opacity="1.00" d=" M 230.10 39.56 L 230.67 39.52 L 230.91 40.05 C 230.70 39.93 230.30 39.68 230.10 39.56 Z" />
<path fill="#c1edfb" opacity="1.00" d=" M 195.63 40.07 C 195.78 40.21 196.10 40.50 196.25 40.64 C 196.10 40.50 195.78 40.21 195.63 40.07 Z" />
<path fill="#c1edfb" opacity="1.00" d=" M 230.91 40.05 L 231.83 39.90 L 232.90 40.65 L 233.11 41.60 C 232.56 41.22 231.46 40.44 230.91 40.05 Z" />
<path fill="#c1edfb" opacity="1.00" d=" M 196.25 40.64 C 196.42 40.80 196.76 41.11 196.93 41.27 L 196.37 41.20 L 196.25 40.64 Z" />
<path fill="#c1edfb" opacity="1.00" d=" M 233.11 41.60 L 233.81 41.67 L 234.04 42.35 C 233.81 42.17 233.34 41.79 233.11 41.60 Z" />
<path fill="#c1edfb" opacity="1.00" d=" M 196.93 41.27 C 197.98 41.97 198.85 42.86 199.53 43.94 C 197.72 43.98 196.85 43.08 196.93 41.27 Z" />
<path fill="#c1edfb" opacity="1.00" d=" M 234.04 42.35 L 234.76 42.48 L 234.96 43.19 C 234.73 42.98 234.27 42.56 234.04 42.35 Z" />
<path fill="#c1edfb" opacity="1.00" d=" M 234.96 43.19 L 235.70 43.36 L 235.89 44.11 C 235.65 43.88 235.19 43.42 234.96 43.19 Z" />
<path fill="#c1edfb" opacity="1.00" d=" M 199.53 43.94 C 199.70 44.09 200.03 44.39 200.20 44.53 L 199.65 44.47 L 199.53 43.94 Z" />
<path fill="#c1edfb" opacity="1.00" d=" M 235.89 44.11 L 236.63 44.30 L 236.78 45.05 C 236.56 44.81 236.11 44.34 235.89 44.11 Z" />
<path fill="#c1edfb" opacity="1.00" d=" M 200.20 44.53 C 200.71 44.91 201.74 45.67 202.25 46.05 L 201.32 46.21 L 200.31 45.47 L 200.20 44.53 Z" />
<path fill="#c1edfb" opacity="1.00" d=" M 236.78 45.05 L 237.47 45.25 L 237.56 45.96 C 237.37 45.73 236.98 45.27 236.78 45.05 Z" />
<path fill="#c1edfb" opacity="1.00" d=" M 202.25 46.05 C 202.46 46.19 202.88 46.48 203.09 46.62 L 202.47 46.62 L 202.25 46.05 Z" />
<path fill="#c1edfb" opacity="1.00" d=" M 237.56 45.96 L 238.21 46.21 L 238.22 46.89 C 238.06 46.65 237.73 46.19 237.56 45.96 Z" />
<path fill="#c1edfb" opacity="1.00" d=" M 203.09 46.62 C 203.64 47.00 204.73 47.76 205.28 48.14 L 204.34 48.28 L 203.28 47.54 L 203.09 46.62 Z" />
<path fill="#c1edfb" opacity="1.00" d=" M 238.22 46.89 L 239.15 47.09 L 239.88 48.08 L 239.72 48.94 C 239.35 48.43 238.60 47.40 238.22 46.89 Z" />
<path fill="#c1edfb" opacity="1.00" d=" M 205.28 48.14 C 205.48 48.29 205.88 48.59 206.08 48.74 L 205.47 48.71 L 205.28 48.14 Z" />
<path fill="#c1edfb" opacity="1.00" d=" M 206.08 48.74 C 206.28 48.87 206.67 49.13 206.87 49.26 L 206.30 49.28 L 206.08 48.74 Z" />
<path fill="#c1edfb" opacity="1.00" d=" M 239.72 48.94 C 241.42 49.85 241.11 53.45 239.32 54.19 C 239.46 52.44 239.55 50.69 239.72 48.94 Z" />
<path fill="#c1edfb" opacity="1.00" d=" M 206.87 49.26 C 207.40 49.58 208.46 50.24 208.99 50.57 L 208.13 50.84 L 207.08 50.19 L 206.87 49.26 Z" />
<path fill="#c1edfb" opacity="1.00" d=" M 208.99 50.57 C 209.52 50.84 210.57 51.38 211.09 51.65 L 210.26 52.01 L 209.22 51.47 L 208.99 50.57 Z" />
<path fill="#c1edfb" opacity="1.00" d=" M 211.09 51.65 C 211.60 51.91 212.62 52.41 213.13 52.66 L 212.32 53.05 L 211.30 52.55 L 211.09 51.65 Z" />
<path fill="#c1edfb" opacity="1.00" d=" M 213.13 52.66 C 213.66 52.86 214.70 53.26 215.23 53.46 L 214.44 53.94 L 213.39 53.54 L 213.13 52.66 Z" />
<path fill="#c1edfb" opacity="1.00" d=" M 215.23 53.46 C 216.57 53.63 217.86 54.04 219.08 54.65 C 218.06 55.94 215.09 55.25 215.23 53.46 Z" />
<path fill="#c1edfb" opacity="1.00" d=" M 238.80 54.83 C 238.93 54.67 239.19 54.35 239.32 54.19 C 239.19 54.35 238.93 54.67 238.80 54.83 Z" />
<path fill="#c1edfb" opacity="1.00" d=" M 219.08 54.65 C 219.60 54.86 220.65 55.29 221.17 55.51 L 220.37 55.97 L 219.32 55.53 L 219.08 54.65 Z" />
<path fill="#c1edfb" opacity="1.00" d=" M 238.19 55.32 C 238.34 55.20 238.65 54.95 238.80 54.83 C 238.65 54.95 238.34 55.20 238.19 55.32 Z" />
<path fill="#c1edfb" opacity="1.00" d=" M 221.17 55.51 C 222.55 55.70 223.89 56.13 225.17 56.71 C 224.09 57.94 221.13 57.31 221.17 55.51 Z" />
<path fill="#c1edfb" opacity="1.00" d=" M 230.90 56.82 C 233.33 56.35 235.76 55.82 238.19 55.32 C 237.03 57.86 233.14 57.78 230.90 56.82 Z" />
<path fill="#c1edfb" opacity="1.00" d=" M 225.17 56.71 C 227.08 56.77 228.98 56.80 230.90 56.82 C 230.04 58.78 225.98 58.61 225.17 56.71 Z" />
</g>
<g id="#eff9fcfd">
<path fill="#eff9fc" opacity="1.00" d=" M 197.60 33.00 C 202.15 32.55 206.72 32.05 211.30 32.29 C 212.80 32.73 214.33 33.12 215.90 33.30 C 216.78 33.96 217.77 34.29 218.88 34.30 C 219.75 35.00 220.74 35.33 221.85 35.31 C 222.37 35.54 223.40 35.99 223.91 36.22 C 224.42 36.48 225.43 37.00 225.93 37.25 C 226.45 37.53 227.48 38.07 228.00 38.34 C 228.52 38.65 229.58 39.26 230.10 39.56 C 230.30 39.68 230.70 39.93 230.91 40.05 C 231.46 40.44 232.56 41.22 233.11 41.60 C 233.34 41.79 233.81 42.17 234.04 42.35 C 234.27 42.56 234.73 42.98 234.96 43.19 C 235.19 43.42 235.65 43.88 235.89 44.11 C 236.11 44.34 236.56 44.81 236.78 45.05 C 236.98 45.27 237.37 45.73 237.56 45.96 C 237.73 46.19 238.06 46.65 238.22 46.89 C 238.60 47.40 239.35 48.43 239.72 48.94 C 239.55 50.69 239.46 52.44 239.32 54.19 C 239.19 54.35 238.93 54.67 238.80 54.83 C 238.65 54.95 238.34 55.20 238.19 55.32 C 235.76 55.82 233.33 56.35 230.90 56.82 C 228.98 56.80 227.08 56.77 225.17 56.71 C 223.89 56.13 222.55 55.70 221.17 55.51 C 220.65 55.29 219.60 54.86 219.08 54.65 C 217.86 54.04 216.57 53.63 215.23 53.46 C 214.70 53.26 213.66 52.86 213.13 52.66 C 212.62 52.41 211.60 51.91 211.09 51.65 C 210.57 51.38 209.52 50.84 208.99 50.57 C 208.46 50.24 207.40 49.58 206.87 49.26 C 206.67 49.13 206.28 48.87 206.08 48.74 C 205.88 48.59 205.48 48.29 205.28 48.14 C 204.73 47.76 203.64 47.00 203.09 46.62 C 202.88 46.48 202.46 46.19 202.25 46.05 C 201.74 45.67 200.71 44.91 200.20 44.53 C 200.03 44.39 199.70 44.09 199.53 43.94 C 198.85 42.86 197.98 41.97 196.93 41.27 C 196.76 41.11 196.42 40.80 196.25 40.64 C 196.10 40.50 195.78 40.21 195.63 40.07 C 195.60 38.68 195.42 37.31 195.06 35.97 C 195.19 35.85 195.43 35.60 195.56 35.47 L 196.31 34.72 C 196.63 34.48 197.28 33.99 197.60 33.75 L 197.60 33.00 Z" />
</g>
<g id="#2d88c4ea">
<path fill="#2d88c4" opacity="0.92" d=" M 39.37 64.34 C 45.90 56.28 53.53 49.11 61.85 42.93 C 61.17 44.26 60.57 45.62 59.91 46.96 C 59.22 47.77 58.51 48.56 57.80 49.34 C 48.19 56.14 40.75 65.40 33.61 74.63 C 30.10 79.22 27.18 84.21 24.49 89.31 C 20.03 96.44 16.83 104.27 14.09 112.19 C 11.12 120.56 9.99 129.43 9.26 138.23 C 8.80 150.71 10.70 163.76 17.44 174.51 C 22.79 182.74 30.37 189.52 39.17 193.88 C 45.48 196.97 52.08 199.58 58.95 201.12 C 75.82 204.87 93.12 205.87 110.33 206.78 C 118.96 207.87 127.68 206.88 136.33 207.72 C 144.10 208.39 151.93 208.62 159.71 207.97 C 171.12 208.67 182.56 208.23 193.99 208.29 C 203.00 208.39 211.97 207.24 220.99 207.35 C 224.55 207.36 228.12 207.29 231.68 207.04 C 234.57 207.02 237.46 206.83 240.33 206.43 C 242.78 206.33 245.22 206.21 247.67 206.07 C 251.23 206.19 254.79 206.03 258.30 205.44 C 271.96 204.06 285.82 202.12 298.48 196.54 C 307.81 192.19 316.77 186.31 322.89 177.87 C 327.10 171.98 330.47 165.41 332.35 158.40 C 334.84 148.40 334.95 137.91 333.41 127.76 C 334.20 128.25 335.00 128.74 335.80 129.23 C 337.01 134.69 336.37 140.32 335.83 145.82 C 334.95 154.36 333.54 163.03 329.92 170.89 C 325.69 179.19 318.71 185.65 311.55 191.42 C 302.44 198.25 291.39 201.79 280.39 204.15 C 274.72 205.30 269.03 206.46 263.24 206.78 C 256.46 206.71 249.76 207.83 243.00 208.13 C 234.53 208.37 226.08 208.97 217.63 209.50 C 196.44 209.70 175.23 210.05 154.04 209.48 C 145.36 209.39 136.68 209.50 128.01 209.33 C 112.92 208.80 97.87 207.76 82.82 206.49 C 71.83 205.31 61.00 203.01 50.25 200.48 C 41.12 198.31 32.78 193.47 25.86 187.20 C 19.95 182.65 15.59 176.35 12.54 169.61 C 6.84 154.48 5.90 137.63 9.79 121.94 C 11.01 117.28 11.77 112.50 13.19 107.89 C 16.09 99.99 19.70 92.33 24.25 85.24 C 28.44 77.70 33.46 70.63 39.37 64.34 Z" />
</g>
<g id="#97d8f8fb">
<path fill="#97d8f8" opacity="1.00" d=" M 57.80 49.34 C 61.84 48.29 66.13 47.70 70.21 48.99 C 59.16 57.13 47.89 65.51 40.18 77.09 C 36.85 78.03 33.11 78.99 31.17 82.15 C 29.03 84.59 28.06 88.59 24.49 89.31 C 27.18 84.21 30.10 79.22 33.61 74.63 C 40.75 65.40 48.19 56.14 57.80 49.34 Z" />
</g>
<g id="#98d8f9fc">
<path fill="#98d8f9" opacity="1.00" d=" M 64.72 60.70 C 67.54 58.07 71.46 55.87 75.43 56.59 C 75.96 57.52 75.92 58.43 75.31 59.31 C 71.81 66.03 65.97 71.34 59.26 74.76 C 58.72 74.48 57.64 73.91 57.10 73.63 C 57.08 68.24 61.08 64.17 64.72 60.70 Z" />
</g>
<g id="#72c4f3fd">
<path fill="#72c4f3" opacity="1.00" d=" M 48.02 71.96 C 51.96 68.53 55.41 64.51 59.84 61.67 C 58.28 65.33 56.02 68.62 54.28 72.18 C 52.89 74.96 53.12 78.15 53.09 81.16 C 55.51 79.98 57.89 78.67 60.06 77.07 C 64.73 73.58 69.92 70.90 74.88 67.86 C 76.44 67.11 77.99 65.90 79.80 66.02 C 82.43 67.35 85.24 69.56 85.54 72.71 C 85.72 74.91 85.74 77.20 85.02 79.31 C 83.00 81.63 80.15 83.02 77.72 84.86 C 73.49 83.94 69.23 83.21 64.91 82.89 L 65.19 83.79 C 65.47 84.81 65.76 85.84 66.05 86.86 C 71.38 90.40 77.94 90.96 83.80 93.24 C 82.24 96.57 80.37 99.81 79.47 103.41 C 78.80 105.98 78.32 108.65 77.01 110.99 C 75.78 113.57 73.92 116.08 74.03 119.06 C 74.29 123.11 75.74 127.04 75.41 131.14 C 75.33 135.35 73.71 139.37 73.65 143.58 C 74.50 147.95 77.54 151.76 77.51 156.33 C 77.37 159.93 76.52 163.48 76.83 167.10 C 77.14 170.75 76.94 174.43 75.94 177.97 C 79.03 179.82 82.40 181.58 84.45 184.67 C 86.53 187.73 88.74 190.70 91.19 193.47 C 85.78 195.95 79.74 194.69 74.01 194.98 C 64.08 195.35 53.66 194.25 45.00 188.98 C 37.12 184.16 28.77 179.22 23.79 171.16 C 19.00 164.68 15.48 156.98 16.01 148.74 C 17.88 151.32 19.34 154.15 20.65 157.05 C 24.55 152.81 24.10 146.79 25.76 141.65 C 28.76 137.54 33.47 135.34 37.75 132.86 C 37.93 127.68 35.61 122.92 34.04 118.11 C 33.12 115.11 32.82 111.46 34.74 108.78 C 37.60 107.66 40.49 110.16 43.22 110.91 C 44.29 108.89 44.89 106.68 45.05 104.40 C 42.37 104.92 39.43 105.59 37.13 103.66 C 38.61 101.07 39.45 98.20 40.72 95.51 C 41.52 94.92 42.42 94.47 43.29 93.98 C 44.54 95.07 45.75 96.21 47.13 97.14 C 49.23 96.95 51.19 95.08 51.09 92.91 C 50.83 89.56 49.23 86.45 49.20 83.08 C 49.37 80.02 50.27 77.07 50.97 74.10 C 49.99 73.39 49.00 72.67 48.02 71.96 Z" />
</g>
<g id="#67bcf0fc">
<path fill="#67bcf0" opacity="1.00" d=" M 35.95 84.05 C 41.11 81.21 43.84 75.86 48.02 71.96 C 49.00 72.67 49.99 73.39 50.97 74.10 C 50.27 77.07 49.37 80.02 49.20 83.08 C 49.23 86.45 50.83 89.56 51.09 92.91 C 51.19 95.08 49.23 96.95 47.13 97.14 C 45.75 96.21 44.54 95.07 43.29 93.98 C 42.42 94.47 41.52 94.92 40.72 95.51 C 39.45 98.20 38.61 101.07 37.13 103.66 C 39.43 105.59 42.37 104.92 45.05 104.40 C 44.89 106.68 44.29 108.89 43.22 110.91 C 40.49 110.16 37.60 107.66 34.74 108.78 C 32.82 111.46 33.12 115.11 34.04 118.11 C 35.61 122.92 37.93 127.68 37.75 132.86 C 33.47 135.34 28.76 137.54 25.76 141.65 C 24.10 146.79 24.55 152.81 20.65 157.05 C 19.34 154.15 17.88 151.32 16.01 148.74 C 15.07 134.40 17.53 119.74 23.74 106.73 C 26.79 98.65 31.25 91.26 35.95 84.05 Z" />
</g>
<g id="#80d1f9fc">
<path fill="#80d1f9" opacity="1.00" d=" M 31.17 82.15 C 33.11 78.99 36.85 78.03 40.18 77.09 C 38.65 79.34 37.33 81.71 35.95 84.05 C 31.25 91.26 26.79 98.65 23.74 106.73 C 17.53 119.74 15.07 134.40 16.01 148.74 C 15.48 156.98 19.00 164.68 23.79 171.16 C 28.77 179.22 37.12 184.16 45.00 188.98 C 53.66 194.25 64.08 195.35 74.01 194.98 C 79.74 194.69 85.78 195.95 91.19 193.47 C 88.74 190.70 86.53 187.73 84.45 184.67 C 82.40 181.58 79.03 179.82 75.94 177.97 C 76.94 174.43 77.14 170.75 76.83 167.10 C 76.52 163.48 77.37 159.93 77.51 156.33 C 77.54 151.76 74.50 147.95 73.65 143.58 C 73.71 139.37 75.33 135.35 75.41 131.14 C 75.74 127.04 74.29 123.11 74.03 119.06 C 73.92 116.08 75.78 113.57 77.01 110.99 C 78.32 108.65 78.80 105.98 79.47 103.41 C 80.37 99.81 82.24 96.57 83.80 93.24 C 77.94 90.96 71.38 90.40 66.05 86.86 C 70.56 87.42 75.00 88.45 79.33 89.83 C 87.13 92.28 95.14 94.06 102.81 96.92 C 101.40 98.96 100.16 101.21 99.99 103.74 C 99.61 108.43 98.26 112.93 97.17 117.48 C 96.47 120.04 97.52 122.56 98.25 124.98 C 97.79 126.45 96.92 127.88 96.97 129.45 C 97.48 132.19 98.87 134.70 99.30 137.46 C 99.48 139.81 98.66 142.11 98.74 144.46 C 99.23 145.50 99.94 146.41 100.59 147.36 C 100.21 147.53 99.45 147.87 99.07 148.03 C 99.33 148.80 99.58 149.56 99.84 150.33 C 100.87 150.15 101.89 149.97 102.92 149.79 C 107.79 154.10 111.70 159.29 115.71 164.38 C 119.07 160.26 121.88 155.18 127.05 153.08 C 136.01 149.23 145.69 145.79 155.59 147.18 C 156.50 148.71 157.42 150.23 158.34 151.76 C 163.44 149.38 168.88 147.90 174.13 145.91 C 174.35 145.70 174.79 145.27 175.01 145.05 C 173.52 142.83 171.97 140.65 170.62 138.34 L 171.53 138.24 C 171.75 137.83 172.18 136.99 172.40 136.58 C 172.50 136.46 172.71 136.22 172.81 136.10 C 172.90 136.00 173.08 135.79 173.17 135.68 C 175.09 133.41 177.22 131.22 179.92 129.88 C 188.22 125.52 197.65 123.48 207.00 123.54 C 217.87 123.68 229.31 123.48 239.19 128.72 C 243.02 130.35 245.50 133.83 248.83 136.17 C 252.42 137.23 256.22 137.23 259.91 137.73 C 259.46 138.95 258.99 140.17 258.51 141.38 C 259.97 143.57 261.41 145.81 263.38 147.60 C 265.59 149.55 268.49 150.46 270.88 152.17 C 272.61 153.77 273.72 155.91 275.35 157.61 C 278.12 157.77 280.89 157.14 283.68 157.40 C 287.48 158.65 289.66 162.39 293.00 164.40 C 297.14 162.90 300.17 159.34 304.39 158.00 C 306.63 157.30 308.70 156.19 310.51 154.70 C 312.07 154.48 313.66 154.39 315.19 153.95 C 318.48 151.72 320.65 148.16 324.02 146.02 C 326.02 146.26 325.73 148.54 325.94 150.03 C 326.17 157.69 323.16 164.97 319.58 171.59 C 316.61 177.07 311.59 181.00 306.73 184.73 C 302.41 187.83 298.23 191.36 293.15 193.15 C 289.69 194.39 286.09 195.28 282.76 196.87 C 279.95 198.11 277.20 199.78 274.05 199.96 C 266.77 200.38 259.44 199.30 252.18 200.22 C 248.65 200.76 246.35 204.08 242.91 204.87 C 237.58 205.50 232.21 203.55 226.92 204.90 C 219.73 206.73 212.29 205.72 204.97 206.05 C 199.64 206.21 194.34 206.99 189.00 206.98 C 181.99 206.97 174.98 206.91 167.98 206.85 C 165.18 206.82 162.44 207.42 159.71 207.97 C 151.93 208.62 144.10 208.39 136.33 207.72 C 127.68 206.88 118.96 207.87 110.33 206.78 C 93.12 205.87 75.82 204.87 58.95 201.12 C 52.08 199.58 45.48 196.97 39.17 193.88 C 30.37 189.52 22.79 182.74 17.44 174.51 C 10.70 163.76 8.80 150.71 9.26 138.23 C 9.99 129.43 11.12 120.56 14.09 112.19 C 16.83 104.27 20.03 96.44 24.49 89.31 C 28.06 88.59 29.03 84.59 31.17 82.15 M 248.89 145.02 C 251.04 147.28 254.37 147.42 257.26 147.94 C 256.90 146.45 256.79 144.47 255.04 143.91 C 253.15 143.03 249.64 142.42 248.89 145.02 Z" />
<path fill="#80d1f9" opacity="1.00" d=" M 247.67 206.07 C 251.16 205.28 254.74 205.12 258.30 205.44 C 254.79 206.03 251.23 206.19 247.67 206.07 Z" />
<path fill="#80d1f9" opacity="1.00" d=" M 231.68 207.04 C 234.51 206.29 237.43 206.12 240.33 206.43 C 237.46 206.83 234.57 207.02 231.68 207.04 Z" />
</g>
<g id="#082e64fd">
<path fill="#082e64" opacity="1.00" d=" M 65.19 83.79 C 68.98 84.83 72.84 85.68 76.60 86.85 C 76.74 86.89 77.02 86.98 77.17 87.02 L 77.74 87.19 C 77.88 87.23 78.17 87.31 78.31 87.36 C 84.59 89.14 90.92 90.78 97.17 92.67 C 97.28 92.70 97.49 92.76 97.59 92.79 C 101.54 94.09 105.54 95.19 109.51 96.40 C 115.29 98.35 121.03 100.45 126.89 102.17 C 131.50 103.87 136.05 105.73 140.72 107.25 C 143.86 108.40 147.53 109.08 149.47 112.11 C 138.76 110.43 129.27 104.41 118.54 102.72 C 118.41 102.65 118.15 102.50 118.02 102.43 C 116.36 101.31 114.41 100.86 112.47 100.57 C 112.30 100.50 111.96 100.37 111.80 100.30 C 111.30 100.10 110.31 99.70 109.81 99.51 C 109.62 99.43 109.23 99.28 109.04 99.21 C 108.61 99.05 107.76 98.73 107.33 98.58 C 105.82 98.04 104.32 97.47 102.81 96.92 C 95.14 94.06 87.13 92.28 79.33 89.83 C 75.00 88.45 70.56 87.42 66.05 86.86 C 65.76 85.84 65.47 84.81 65.19 83.79 Z" />
</g>
<g id="#08235bfd">
<path fill="#08235b" opacity="1.00" d=" M 277.06 85.95 C 279.19 85.49 281.52 84.51 283.61 85.66 C 279.55 87.57 275.19 88.66 270.90 89.90 C 254.79 94.55 238.86 99.82 222.89 104.91 C 215.16 107.53 207.55 110.65 199.56 112.33 C 199.90 110.14 202.28 109.60 204.00 108.87 C 214.92 104.79 226.11 101.53 237.24 98.09 C 250.42 93.73 263.71 89.72 277.06 85.95 Z" />
</g>
<g id="#062a63fd">
<path fill="#062a63" opacity="1.00" d=" M 76.60 86.85 C 76.74 86.89 77.02 86.98 77.17 87.02 C 77.02 86.98 76.74 86.89 76.60 86.85 Z" />
<path fill="#062a63" opacity="1.00" d=" M 77.74 87.19 C 77.88 87.23 78.17 87.31 78.31 87.36 C 78.17 87.31 77.88 87.23 77.74 87.19 Z" />
<path fill="#062a63" opacity="1.00" d=" M 97.17 92.67 C 97.28 92.70 97.49 92.76 97.59 92.79 C 97.49 92.76 97.28 92.70 97.17 92.67 Z" />
</g>
<g id="#8ad4fafd">
<path fill="#8ad4fa" opacity="1.00" d=" M 102.81 96.92 C 104.32 97.47 105.82 98.04 107.33 98.58 C 107.23 98.91 107.03 99.57 106.93 99.90 L 107.60 100.36 C 108.01 100.22 108.82 99.94 109.23 99.80 C 109.71 101.16 110.65 101.51 112.04 100.84 C 113.60 102.46 115.80 103.44 118.05 102.71 C 121.32 104.76 124.90 106.24 128.57 107.45 C 126.33 108.80 123.67 109.79 122.03 111.91 C 121.61 114.55 122.37 117.18 122.70 119.78 C 123.28 123.28 123.18 126.85 123.84 130.34 C 124.19 132.48 125.60 134.59 127.82 135.12 C 132.59 136.49 137.67 136.21 142.44 137.62 C 144.83 138.33 146.94 139.72 149.10 140.93 C 152.43 142.89 156.19 143.91 159.70 145.50 C 161.36 146.16 163.07 147.21 164.94 146.78 C 167.99 146.33 171.04 145.94 174.13 145.91 C 168.88 147.90 163.44 149.38 158.34 151.76 C 157.42 150.23 156.50 148.71 155.59 147.18 C 145.69 145.79 136.01 149.23 127.05 153.08 C 121.88 155.18 119.07 160.26 115.71 164.38 C 111.70 159.29 107.79 154.10 102.92 149.79 C 101.89 149.97 100.87 150.15 99.84 150.33 C 99.58 149.56 99.33 148.80 99.07 148.03 C 99.45 147.87 100.21 147.53 100.59 147.36 C 99.94 146.41 99.23 145.50 98.74 144.46 C 98.66 142.11 99.48 139.81 99.30 137.46 C 98.87 134.70 97.48 132.19 96.97 129.45 C 96.92 127.88 97.79 126.45 98.25 124.98 C 97.52 122.56 96.47 120.04 97.17 117.48 C 98.26 112.93 99.61 108.43 99.99 103.74 C 100.16 101.21 101.40 98.96 102.81 96.92 Z" />
<path fill="#8ad4fa" opacity="1.00" d=" M 109.04 99.21 C 109.23 99.28 109.62 99.43 109.81 99.51 L 109.23 99.80 L 109.04 99.21 Z" />
<path fill="#8ad4fa" opacity="1.00" d=" M 111.80 100.30 C 111.96 100.37 112.30 100.50 112.47 100.57 L 112.04 100.84 L 111.80 100.30 Z" />
<path fill="#8ad4fa" opacity="1.00" d=" M 118.02 102.43 C 118.15 102.50 118.41 102.65 118.54 102.72 L 118.05 102.71 L 118.02 102.43 Z" />
<path fill="#8ad4fa" opacity="1.00" d=" M 172.81 136.10 C 172.90 136.00 173.08 135.79 173.17 135.68 C 173.08 135.79 172.90 136.00 172.81 136.10 Z" />
<path fill="#8ad4fa" opacity="1.00" d=" M 172.40 136.58 C 172.50 136.46 172.71 136.22 172.81 136.10 C 172.71 136.22 172.50 136.46 172.40 136.58 Z" />
<path fill="#8ad4fa" opacity="1.00" d=" M 170.86 137.47 C 171.24 137.25 172.02 136.80 172.40 136.58 C 172.18 136.99 171.75 137.83 171.53 138.24 L 170.62 138.34 L 170.86 137.47 Z" />
<path fill="#8ad4fa" opacity="1.00" d=" M 169.51 141.84 C 169.89 140.67 170.27 139.51 170.62 138.34 C 171.97 140.65 173.52 142.83 175.01 145.05 C 174.79 145.27 174.35 145.70 174.13 145.91 C 172.59 144.55 171.06 143.19 169.51 141.84 Z" />
</g>
<g id="#b0e6fafc">
<path fill="#b0e6fa" opacity="1.00" d=" M 267.07 126.09 C 270.05 122.90 274.63 121.49 278.91 121.94 C 280.83 122.55 282.41 123.88 284.24 124.69 C 286.07 125.38 288.12 125.29 289.93 126.05 C 291.16 126.85 292.21 127.89 293.31 128.87 C 294.61 127.48 295.94 126.13 297.26 124.76 C 299.88 127.60 302.74 130.87 303.09 134.85 C 301.79 137.17 299.90 139.21 297.62 140.59 C 295.92 140.89 294.19 140.48 292.47 140.63 C 289.42 142.48 287.09 145.67 283.41 146.38 C 278.99 147.19 274.45 147.37 269.97 147.21 C 266.35 147.19 262.57 144.59 262.20 140.81 C 261.83 137.91 260.79 135.15 260.40 132.26 C 262.56 130.13 264.94 128.24 267.07 126.09 M 276.48 124.48 C 273.32 125.68 270.55 127.79 268.16 130.16 C 263.71 134.48 267.33 143.04 273.19 143.73 C 275.55 144.15 277.99 144.65 280.40 144.29 C 284.49 143.06 288.27 139.49 288.38 135.00 C 288.56 131.47 286.02 128.59 283.55 126.41 C 281.68 124.67 278.99 123.70 276.48 124.48 Z" />
</g>
<g id="#ecf8fbfd">
<path fill="#ecf8fb" opacity="1.00" d=" M 276.48 124.48 C 278.99 123.70 281.68 124.67 283.55 126.41 C 286.02 128.59 288.56 131.47 288.38 135.00 C 288.27 139.49 284.49 143.06 280.40 144.29 C 277.99 144.65 275.55 144.15 273.19 143.73 C 267.33 143.04 263.71 134.48 268.16 130.16 C 270.55 127.79 273.32 125.68 276.48 124.48 Z" />
</g>
<g id="#b0e9fcfd">
<path fill="#b0e9fc" opacity="1.00" d=" M 248.89 145.02 C 249.64 142.42 253.15 143.03 255.04 143.91 C 256.79 144.47 256.90 146.45 257.26 147.94 C 254.37 147.42 251.04 147.28 248.89 145.02 Z" />
</g>
<g id="#22495f6a">
<path fill="#22495f" opacity="0.42" d=" M 243.00 208.13 C 249.76 207.83 256.46 206.71 263.24 206.78 C 260.05 208.21 256.44 207.61 253.07 208.12 C 247.12 208.86 241.10 208.57 235.15 209.26 C 229.33 209.87 223.47 209.80 217.63 209.50 C 226.08 208.97 234.53 208.37 243.00 208.13 Z" />
</g>
</svg>
